<?xml version="1.0" encoding="UTF-8"?>
<svg version="1.1" xmlns="http://www.w3.org/2000/svg" width="285" height="284">
<path d="M0 0 C13.53 0 27.06 0 41 0 C41 60.06 41 120.12 41 182 C-9.16 182 -59.32 182 -111 182 C-109.51692425 177.55077276 -108.1853209 174.2419195 -105.9453125 170.24609375 C-105.33679443 169.15530518 -104.72827637 168.0645166 -104.10131836 166.94067383 C-103.44275301 165.77283222 -102.78397513 164.60511044 -102.125 163.4375 C-101.4431122 162.22113139 -100.76155691 161.00457633 -100.08032227 159.7878418 C-98.06164786 156.18728951 -96.03198791 152.59305613 -94 149 C-93.45424316 148.03416992 -92.90848633 147.06833984 -92.34619141 146.07324219 C-87.83673344 138.10716326 -83.28369633 130.16799382 -78.63671875 122.28125 C-70.65129451 108.71888146 -63.06220154 94.99002491 -55.65966797 81.1015625 C-53.11382244 76.34392472 -50.5275587 71.60867363 -47.9375 66.875 C-44.88420283 61.29273992 -41.83803562 55.70705996 -38.8203125 50.10546875 C-33.27513935 39.81490703 -27.67723182 29.55860535 -21.9375 19.375 C-21.40133057 18.42117432 -20.86516113 17.46734863 -20.31274414 16.48461914 C-17.70084441 11.87257485 -15.09707317 7.30586154 -12 3 C-11.67 3 -11.34 3 -11 3 C-12.52955443 25.80754329 -14.65268573 48.55511679 -16.78753662 71.31225586 C-17.15793442 75.26963366 -17.52510835 79.22730803 -17.89228153 83.18498611 C-18.24870574 87.02329752 -18.60684895 90.86144699 -18.96554375 94.69954681 C-19.13544155 96.51908834 -19.30487973 98.33867284 -19.47383308 100.15830231 C-19.70879679 102.68545051 -19.94601031 105.21237773 -20.18383789 107.73925781 C-20.25190643 108.47583618 -20.31997498 109.21241455 -20.3901062 109.97131348 C-20.80408933 114.33918878 -21.34737858 118.6630895 -22 123 C-24.9720191 120.44980166 -26.29621847 117.62228146 -27.91796875 114.08984375 C-28.44970703 112.93548828 -28.98144531 111.78113281 -29.52929688 110.59179688 C-29.8012085 109.99230225 -30.07312012 109.39280762 -30.35327148 108.77514648 C-31.18781034 106.93681639 -32.03347585 105.10392364 -32.88085938 103.27148438 C-37 94.27375229 -37 94.27375229 -37 92 C-39.75717382 94.45751459 -41.32369527 97.12260882 -43.08203125 100.35546875 C-43.67725586 101.44077881 -44.27248047 102.52608887 -44.88574219 103.64428711 C-45.19942749 104.22129364 -45.51311279 104.79830017 -45.83630371 105.39279175 C-47.50526293 108.46112433 -49.19164682 111.51982715 -50.87890625 114.578125 C-51.22291473 115.20210678 -51.56692322 115.82608856 -51.9213562 116.46897888 C-55.26583197 122.51638498 -58.74349039 128.48274508 -62.25 134.4375 C-68.37386541 144.84867675 -74.23268443 155.38818218 -80 166 C-62.9928236 166.07603979 -46.0030535 165.85996803 -29 165.5 C-24.43755286 165.4034094 -19.87505332 165.31017363 -15.3125 165.21875 C-13.83946411 165.18593933 -13.83946411 165.18593933 -12.33666992 165.15246582 C-0.88683196 164.92365322 10.53948624 165 22 165 C22 116.16 22 67.32 22 17 C14.74 17 7.48 17 0 17 C0 11.39 0 5.78 0 0 Z " fill="#ED7D19" transform="translate(205,51)"/>
<path d="M0 0 C43.56 0 87.12 0 132 0 C132 0.66 132 1.32 132 2 C129.50120479 4.23574199 126.6804096 6.07610642 123.9375 8 C122.80924805 8.81984375 122.80924805 8.81984375 121.65820312 9.65625 C120.91376953 10.1821875 120.16933594 10.708125 119.40234375 11.25 C118.72679443 11.72953125 118.05124512 12.2090625 117.35522461 12.703125 C110.91527095 16.24920501 104.39569988 16.33019257 97.2421875 16.4140625 C96.18564972 16.43342865 95.12911194 16.4527948 94.04055786 16.4727478 C91.78964368 16.51225054 89.53864694 16.54726669 87.28759766 16.578125 C83.9896743 16.62342485 80.6922002 16.68135042 77.39453125 16.7421875 C57.92449588 17.06230552 38.47877009 17 19 17 C19 65.84 19 114.68 19 165 C25.6 165 32.2 165 39 165 C39.66 163.35 40.32 161.7 41 160 C42.08965062 157.8478708 43.20716599 155.70974724 44.34375 153.58203125 C44.66885056 152.97216873 44.99395111 152.36230621 45.3289032 151.73396301 C46.38312871 149.75862705 47.44136439 147.78547551 48.5 145.8125 C49.23352598 144.44126818 49.96700553 143.07001153 50.70043945 141.69873047 C54.84905743 133.95284831 59.04239808 126.23473149 63.33959961 118.57006836 C66.81089234 112.37252316 70.18911455 106.1262837 73.5625 99.875 C78.60970242 90.52575008 83.75467345 81.23923771 89 72 C88.08186523 72.12640869 87.16373047 72.25281738 86.21777344 72.38305664 C82.80431176 72.849373 79.39007848 73.30891358 75.97509766 73.76391602 C74.49849553 73.96206001 73.02225016 74.16288207 71.54638672 74.36645508 C69.42243613 74.65894524 67.29738024 74.94171579 65.171875 75.22265625 C63.8940918 75.39547119 62.61630859 75.56828613 61.29980469 75.74633789 C58.45907471 75.96471008 56.64780335 75.93606264 54 75 C60.34694131 69.7150469 66.77375564 64.61403774 73.40234375 59.6875 C77.94213742 56.30783223 82.43768319 52.87009999 86.9375 49.4375 C87.83774902 48.75099365 88.73799805 48.0644873 89.66552734 47.35717773 C91.52044441 45.94251308 93.37526111 44.52771682 95.22998047 43.11279297 C99.65191885 39.74002241 104.07601341 36.37008324 108.5 33 C113.90312767 28.88383978 119.30579296 24.76707679 124.70703125 20.6484375 C125.64546875 19.93300781 126.58390625 19.21757813 127.55078125 18.48046875 C129.33352604 17.12134648 131.11609122 15.76198857 132.8984375 14.40234375 C134.50338997 13.17891722 136.10960957 11.95715063 137.71728516 10.73730469 C139.25366834 9.56801028 140.78452235 8.39141893 142.31005859 7.20800781 C143.02629395 6.65725586 143.7425293 6.10650391 144.48046875 5.5390625 C145.11235107 5.04873535 145.7442334 4.5584082 146.39526367 4.05322266 C148 3 148 3 150 3 C148.55495176 6.84463994 146.78730827 10.36225301 144.796875 13.953125 C144.48271133 14.52165192 144.16854767 15.09017883 143.84486389 15.67593384 C142.81616228 17.53559029 141.7831928 19.39283558 140.75 21.25 C140.02675333 22.55474855 139.30369262 23.8596002 138.58081055 25.16455078 C136.39214897 29.11245702 134.19713456 33.05680415 132 37 C131.36852051 38.1334082 130.73704102 39.26681641 130.08642578 40.43457031 C123.39802083 52.42619686 116.65793113 64.3883606 109.89379883 76.33740234 C105.90898796 83.38035194 101.94983385 90.43738318 98 97.5 C92.98940497 106.4593421 87.95170949 115.40281974 82.89453125 124.3359375 C78.90963176 131.37946444 74.95027597 138.43700484 71 145.5 C66.2402604 154.00625739 61.47359623 162.50853895 56.6875 171 C56.12998047 171.99193359 55.57246094 172.98386719 54.99804688 174.00585938 C54.48693359 174.91142578 53.97582031 175.81699219 53.44921875 176.75 C52.77379028 177.94882812 52.77379028 177.94882812 52.0847168 179.171875 C51 181 51 181 50 182 C33.5 182 17 182 0 182 C0 121.94 0 61.88 0 0 Z " fill="#294472" transform="translate(39,51)"/>
</svg>
